<svg width="285" height="47" viewBox="0 0 285 47" fill="none" xmlns="http://www.w3.org/2000/svg">
<path d="M79.0249 29.1946V45.8895H71.0879V1.31275H79.0249V20.7758L87.5289 25.4561L88.3793 24.0577C96.2218 11.3582 101.072 3.62435 103.34 0L110.269 3.59581L94.1745 29.3373L113.797 40.4957C113.765 40.5243 113.765 40.5528 113.734 40.5814C113.23 41.2377 112.694 41.9797 112.127 42.8644L109.576 46.66L79.0249 29.1946Z" fill="#BA8D5D"/>
<path d="M147.919 1.26953H139.478V45.9319H147.919V1.26953Z" fill="#BA8D5D"/>
<path d="M213.078 1.26953V45.7892H205.33V38.3121L181.236 13.3127V45.7892H173.33V1.26953H181.11L205.33 26.8398V1.26953H213.078Z" fill="#BA8D5D"/>
<path d="M264.473 1.26953H255.969C251.622 11.2294 236.221 45.8463 236.221 45.8463H244.095L248.252 36.4857L271.339 34.117L276.599 45.7606H284.189L264.473 1.26953ZM251.087 30.0075L260.284 9.17463L268.725 28.2382L251.087 30.0075Z" fill="#BA8D5D"/>
<path d="M28.252 1.26953H19.7481C15.4016 11.2294 0 45.8463 0 45.8463H7.87403L13.0709 34.117L36.189 36.4857L40.4095 45.7606H48.0001L28.252 1.26953ZM15.6536 28.2096L24.0945 9.17463L33.3544 30.0075L15.6536 28.2096Z" fill="#BA8D5D"/>
</svg>
