<svg width="49" height="58" viewBox="0 0 49 58" fill="none" xmlns="http://www.w3.org/2000/svg">
<path d="M6.584 56.5757L46.8203 32.2687C47.3812 31.927 47.8447 31.4468 48.1663 30.8742C48.488 30.3016 48.6569 29.6559 48.6569 28.9991C48.6569 28.3424 48.488 27.6967 48.1663 27.1241C47.8447 26.5515 47.3812 26.0713 46.8203 25.7296L6.584 1.42259C6.00727 1.07706 5.349 0.891179 4.67672 0.884005C4.00444 0.876831 3.34235 1.04863 2.75838 1.38176C2.1744 1.7149 1.68956 2.19739 1.35359 2.77974C1.01761 3.36209 0.842597 4.02333 0.846499 4.69563V53.3026C0.842597 53.9749 1.01761 54.6362 1.35359 55.2185C1.68956 55.8009 2.1744 56.2834 2.75838 56.6165C3.34235 56.9496 4.00444 57.1214 4.67672 57.1143C5.349 57.1071 6.00727 56.9212 6.584 56.5757Z" fill="white"/>
</svg>
