<svg width="254" height="75" viewBox="0 0 254 75" fill="none" xmlns="http://www.w3.org/2000/svg">
<path d="M0.0240845 18.5488C2.57688 18.881 4.62393 18.9641 5.82808 18.9641C8.93479 18.9641 13.4142 18.5488 17.1471 18.5488C19.9166 18.5488 23.5291 18.9641 25.9855 20.1822C30.2242 22.3694 32.8492 26.6882 32.8492 32.8897C32.8492 44.9327 25.6243 50.3036 14.8592 50.3036H11.03C11.03 58.443 11.1023 66.5824 11.608 74.7218C7.99555 74.3065 6.9359 74.3065 5.804 74.3065C4.59985 74.3065 3.5402 74.3065 0 74.7218C0.361245 68.7695 0.57799 59.7442 0.57799 53.7365V39.5618C0.57799 33.4434 0.361246 24.6395 0.0240845 18.5488ZM11.0541 39.7002V46.1231C18.4957 46.1231 21.6747 42.0534 21.6747 34.1632C21.6747 27.0758 19.2664 23.1722 13.8959 23.1722C13.053 23.1722 12.0656 23.1722 11.1986 23.2553C11.1986 24.6395 11.0541 37.0147 11.0541 39.7002Z" fill="#BA8D5D"/>
<path d="M65.5055 18.9641C68.1306 18.9641 71.0205 18.5488 75.8371 18.5488C81.015 18.5488 84.5552 19.0472 86.3132 20.0992C89.9979 22.1202 92.7675 26.1345 92.7675 32.0591C92.7675 39.9494 88.866 44.988 81.7856 47.0367C83.9772 51.1895 85.4703 54.2902 86.53 56.2282L96.8616 74.6941C93.4659 74.3619 91.5633 74.2788 90.4796 74.2788C89.3958 74.2788 87.1561 74.3619 84.0253 74.6941L71.3818 48.8363H70.7556V51.7432C70.7556 62.2358 71.0446 69.4893 71.3336 74.6941C67.7934 74.2788 66.7337 74.2788 65.5296 74.2788C64.3977 74.2788 63.338 74.2788 59.7256 74.6941C60.0868 68.4373 60.3036 59.3842 60.3036 53.7088V39.5341C60.3036 32.3637 60.0868 24.0581 59.7256 18.5488C60.3999 18.798 63.3862 18.9641 65.5055 18.9641ZM72.0802 45.4864C79.5218 45.4864 81.9301 40.4477 81.9301 33.7756C81.9301 30.924 81.6411 28.7369 81.015 27.3527C79.6663 24.2519 77.7638 23.1999 70.9723 23.1999C70.7556 30.2873 70.7556 37.2085 70.7556 45.3479C71.2373 45.4033 71.8875 45.4864 72.0802 45.4864Z" fill="#BA8D5D"/>
<path d="M128.724 18.9641C129.928 18.9641 131.638 18.881 134.528 18.5488C134.167 25.2209 133.95 35.4644 133.95 39.5341V53.7088C133.95 57.9446 134.167 68.105 134.528 74.6941C130.915 74.2788 129.856 74.2788 128.724 74.2788C127.592 74.2788 126.532 74.2788 122.92 74.6941C123.498 66.0564 123.498 56.6988 123.498 53.7088V39.5341C123.498 32.3637 123.281 25.6916 122.92 18.5488C125.954 18.881 127.52 18.9641 128.724 18.9641Z" fill="#BA8D5D"/>
<path d="M161.5 18.9641C163.548 18.9641 165.546 18.798 167.738 18.5488C169.087 23.6706 171.278 31.3393 174.602 41.4997L180.333 59.4119C184.644 47.2859 189.75 32.3083 193.724 18.5488C194.855 18.798 195.771 18.9641 196.83 18.9641C197.89 18.9641 198.877 18.798 199.937 18.5488C191.652 41.0844 184.5 61.3499 180.55 74.6941C178.503 74.2788 177.925 74.2788 177.443 74.2788C176.938 74.2788 176.384 74.2788 174.337 74.6941C169.52 59.3012 160.32 32.6128 155.143 18.5488C157.406 18.798 159.453 18.9641 161.5 18.9641Z" fill="#BA8D5D"/>
<path d="M232.016 18.7981C233.918 18.8812 236.182 18.9642 238.735 18.9642C246.658 18.9642 250.993 18.7981 253.04 18.549C252.824 20.0993 252.751 20.653 252.751 21.9542C252.751 22.8401 252.824 23.7538 253.04 25.6087L245.334 25.0273C241.577 24.7781 237.699 24.612 237.049 24.612C236.688 29.9829 236.688 37.7901 236.688 42.3581C241.866 42.275 247.092 42.0259 252.751 41.6937C252.462 43.5762 252.39 44.2961 252.39 45.3481C252.39 46.234 252.534 47.7844 252.751 48.698C247.092 48.2827 242.058 47.9782 236.688 47.9782L236.616 58.3047C236.616 60.6579 236.616 65.7243 236.832 68.5481C242.275 68.5481 247.597 68.2159 253.04 67.4961C252.824 69.3787 252.751 70.2646 252.751 71.1505C252.751 72.7009 252.824 73.1162 253.04 74.6388C248.802 74.3897 244.202 74.2236 240.156 74.2236C234.978 74.2236 229.607 74.2236 225.634 74.6388C225.995 68.6866 226.212 59.6612 226.212 53.6536V39.4789C226.212 33.3881 225.995 24.5843 225.634 18.4936L232.016 18.7981ZM251.065 3.65442C251.065 4.70645 251.138 5.45395 248.657 7.64107C247.597 8.61005 244.13 11.1294 238.181 15.2821H234.28C240.011 7.22579 243.19 3.07304 244.274 2.021C246.032 0.138422 246.682 0 247.742 0C249.717 0 251.065 1.4673 251.065 3.65442Z" fill="#BA8D5D"/>
</svg>
