<svg width="254" height="76" viewBox="0 0 254 76" fill="none" xmlns="http://www.w3.org/2000/svg">
<path d="M0.0240845 19.3203C2.57688 19.6525 4.62393 19.7356 5.82808 19.7356C8.93479 19.7356 13.4142 19.3203 17.1471 19.3203C19.9166 19.3203 23.5291 19.7356 25.9855 20.9537C30.2242 23.1408 32.8492 27.4597 32.8492 33.6612C32.8492 45.7042 25.6243 51.075 14.8592 51.075H11.03C11.03 59.2144 11.1023 67.3539 11.608 75.4933C7.99555 75.078 6.9359 75.078 5.804 75.078C4.59985 75.078 3.5402 75.078 0 75.4933C0.361245 69.541 0.57799 60.5157 0.57799 54.508V40.3333C0.57799 34.2149 0.361246 25.411 0.0240845 19.3203ZM11.0541 40.4717V46.8946C18.4957 46.8946 21.6747 42.8249 21.6747 34.9347C21.6747 27.8473 19.2664 23.9437 13.8959 23.9437C13.053 23.9437 12.0656 23.9437 11.1986 24.0268C11.1986 25.411 11.0541 37.7862 11.0541 40.4717Z" fill="#BA8D5D"/>
<path d="M65.5055 19.7356C68.1306 19.7356 71.0205 19.3203 75.8371 19.3203C81.015 19.3203 84.5552 19.8186 86.3132 20.8707C89.9979 22.8917 92.7675 26.906 92.7675 32.8306C92.7675 40.7208 88.866 45.7595 81.7856 47.8082C83.9772 51.961 85.4703 55.0617 86.53 56.9996L96.8616 75.4656C93.4659 75.1333 91.5633 75.0503 90.4796 75.0503C89.3958 75.0503 87.1561 75.1333 84.0253 75.4656L71.3818 49.6077H70.7556V52.5147C70.7556 63.0073 71.0446 70.2608 71.3336 75.4656C67.7934 75.0503 66.7337 75.0503 65.5296 75.0503C64.3977 75.0503 63.338 75.0503 59.7256 75.4656C60.0868 69.2087 60.3036 60.1557 60.3036 54.4803V40.3056C60.3036 33.1351 60.0868 24.8296 59.7256 19.3203C60.3999 19.5695 63.3862 19.7356 65.5055 19.7356ZM72.0802 46.2579C79.5218 46.2579 81.9301 41.2192 81.9301 34.5471C81.9301 31.6955 81.6411 29.5084 81.015 28.1242C79.6663 25.0234 77.7638 23.9714 70.9723 23.9714C70.7556 31.0588 70.7556 37.98 70.7556 46.1194C71.2373 46.1748 71.8875 46.2579 72.0802 46.2579Z" fill="#BA8D5D"/>
<path d="M128.723 19.7356C129.928 19.7356 131.637 19.6525 134.527 19.3203C134.166 25.9924 133.949 36.2359 133.949 40.3056V54.4803C133.949 58.7161 134.166 68.8765 134.527 75.4656C130.915 75.0503 129.855 75.0503 128.723 75.0503C127.592 75.0503 126.532 75.0503 122.919 75.4656C123.497 66.8278 123.497 57.4703 123.497 54.4803V40.3056C123.497 33.1351 123.281 26.4631 122.919 19.3203C125.954 19.6525 127.519 19.7356 128.723 19.7356Z" fill="#BA8D5D"/>
<path d="M161.5 19.7356C163.548 19.7356 165.546 19.5695 167.738 19.3203C169.087 24.442 171.278 32.1108 174.602 42.2712L180.333 60.1834C184.644 48.0574 189.75 33.0798 193.724 19.3203C194.855 19.5695 195.771 19.7356 196.83 19.7356C197.89 19.7356 198.877 19.5695 199.937 19.3203C191.652 41.8559 184.5 62.1214 180.55 75.4656C178.503 75.0503 177.925 75.0503 177.443 75.0503C176.938 75.0503 176.384 75.0503 174.337 75.4656C169.52 60.0727 160.32 33.3843 155.143 19.3203C157.406 19.5695 159.453 19.7356 161.5 19.7356Z" fill="#BA8D5D"/>
<path d="M232.015 19.5696C233.918 19.6527 236.182 19.7357 238.734 19.7357C246.658 19.7357 250.993 19.5696 253.04 19.3205C252.823 20.8708 252.751 21.4245 252.751 22.7257C252.751 23.6116 252.823 24.5252 253.04 26.3801L245.333 25.7988C241.576 25.5496 237.699 25.3835 237.049 25.3835C236.687 30.7544 236.687 38.5615 236.687 43.1296C241.865 43.0465 247.091 42.7974 252.751 42.4651C252.462 44.3477 252.39 45.0675 252.39 46.1196C252.39 47.0055 252.534 48.5558 252.751 49.4695C247.091 49.0542 242.058 48.7496 236.687 48.7496L236.615 59.0762C236.615 61.4294 236.615 66.4958 236.832 69.3196C242.275 69.3196 247.597 68.9874 253.04 68.2676C252.823 70.1502 252.751 71.0361 252.751 71.922C252.751 73.4724 252.823 73.8877 253.04 75.4103C248.801 75.1612 244.201 74.9951 240.155 74.9951C234.978 74.9951 229.607 74.9951 225.633 75.4103C225.995 69.458 226.211 60.4327 226.211 54.4251V40.2503C226.211 34.1596 225.995 25.3558 225.633 19.2651L232.015 19.5696ZM251.065 4.4259C251.065 5.47793 251.137 6.22544 248.657 8.41255C247.597 9.38153 244.129 11.9009 238.181 16.0536H234.279C240.011 7.99727 243.19 3.84452 244.274 2.79249C246.032 0.909906 246.682 0.771484 247.742 0.771484C249.716 0.771484 251.065 2.23879 251.065 4.4259Z" fill="#BA8D5D"/>
</svg>
